<svg xmlns="http://www.w3.org/2000/svg" width="1200" height="176" viewBox="0 0 1200 176" fill="none" role="img">
  <defs>
    <pattern id="dots-g" width="20" height="20" patternUnits="userSpaceOnUse"><circle cx="2" cy="2" r="1.8" fill="#e3d9bf"/></pattern>
    <clipPath id="clip-g"><rect x="8" y="6" width="1176" height="154" rx="22"/></clipPath>
  </defs>
  <rect x="16" y="18" width="1176" height="154" rx="22" fill="#12100c"/>
  <g clip-path="url(#clip-g)">
    <rect x="8" y="6" width="1176" height="154" fill="#fbf4e2"/>
    <rect x="8" y="6" width="1176" height="154" fill="url(#dots-g)"/>
    <text x="42" y="40" font-family="ui-monospace,'SF Mono',Menlo,Consolas,monospace" font-size="12.5" font-weight="700" letter-spacing="2.6" fill="#12100c">WHAT THE BYTES SAY &#183; 27 REPOS</text>
    <defs><clipPath id="lbar"><rect x="0" y="52" width="1116" height="30" rx="15"/></clipPath></defs>
    <g clip-path="url(#lbar)" transform="translate(42,0)">
      <rect x="0" y="52" width="753" height="30" fill="#f7df1e"/>
      <rect x="753" y="52" width="167" height="30" fill="#a855f7"/>
      <rect x="920" y="52" width="74" height="30" fill="#2f9bff"/>
      <rect x="994" y="52" width="62" height="30" fill="#3ddc84"/>
      <rect x="1056" y="52" width="31" height="30" fill="#ff3b30"/>
      <rect x="1087" y="52" width="26" height="30" fill="#4b8bbe"/>
      <rect x="1113" y="52" width="3" height="30" fill="#8a8578"/>
      <rect x="-1116" y="52" width="1116" height="30" fill="#fbf4e2">
        <animate attributeName="x" values="0;-1116" dur="1.3s" fill="freeze" calcMode="spline" keySplines="0.16 1 0.3 1" keyTimes="0;1"/>
      </rect>
    </g>
    <rect x="42" y="52" width="1116" height="30" rx="15" fill="none" stroke="#12100c" stroke-width="4"/>
    <rect x="42" y="102" width="14" height="14" rx="4" fill="#f7df1e" stroke="#12100c" stroke-width="2.5"/>
    <text x="64" y="114" font-family="ui-monospace,'SF Mono',Menlo,Consolas,monospace" font-size="13" font-weight="600" fill="#12100c">JavaScript 67.5%</text>
    <rect x="204.4" y="102" width="14" height="14" rx="4" fill="#a855f7" stroke="#12100c" stroke-width="2.5"/>
    <text x="226.4" y="114" font-family="ui-monospace,'SF Mono',Menlo,Consolas,monospace" font-size="13" font-weight="600" fill="#12100c">CSS 14.9%</text>
    <rect x="311.5" y="102" width="14" height="14" rx="4" fill="#2f9bff" stroke="#12100c" stroke-width="2.5"/>
    <text x="333.5" y="114" font-family="ui-monospace,'SF Mono',Menlo,Consolas,monospace" font-size="13" font-weight="600" fill="#12100c">TypeScript 6.7%</text>
    <rect x="466" y="102" width="14" height="14" rx="4" fill="#3ddc84" stroke="#12100c" stroke-width="2.5"/>
    <text x="488" y="114" font-family="ui-monospace,'SF Mono',Menlo,Consolas,monospace" font-size="13" font-weight="600" fill="#12100c">C# 5.6%</text>
    <rect x="557.3" y="102" width="14" height="14" rx="4" fill="#ff3b30" stroke="#12100c" stroke-width="2.5"/>
    <text x="579.3" y="114" font-family="ui-monospace,'SF Mono',Menlo,Consolas,monospace" font-size="13" font-weight="600" fill="#12100c">HTML 2.7%</text>
    <rect x="664.4" y="102" width="14" height="14" rx="4" fill="#4b8bbe" stroke="#12100c" stroke-width="2.5"/>
    <text x="686.4" y="114" font-family="ui-monospace,'SF Mono',Menlo,Consolas,monospace" font-size="13" font-weight="600" fill="#12100c">Python 2.3%</text>
    <rect x="787.3" y="102" width="14" height="14" rx="4" fill="#8a8578" stroke="#12100c" stroke-width="2.5"/>
    <text x="809.3" y="114" font-family="ui-monospace,'SF Mono',Menlo,Consolas,monospace" font-size="13" font-weight="600" fill="#12100c">the rest 0.2%</text>
    <text x="42" y="146" font-family="ui-monospace,'SF Mono',Menlo,Consolas,monospace" font-size="11.5" fill="#6b6455">Bytes reward whoever ships the most files, so this is honest rather than flattering. What I reach for is above.</text>
  </g>
  <rect x="8" y="6" width="1176" height="154" rx="22" fill="none" stroke="#12100c" stroke-width="5"/>
</svg>
